<svg height="100%" stroke-miterlimit="10" style="fill-rule:nonzero;clip-rule:evenodd;stroke-linecap:round;stroke-linejoin:round;" version="1.1" viewBox="0 0 2732 2048" width="100%" xml:space="preserve" xmlns="http://www.w3.org/2000/svg" xmlns:vectornator="http://vectornator.io" xmlns:xlink="http://www.w3.org/1999/xlink">
<defs>
<filter color-interpolation-filters="sRGB" filterUnits="userSpaceOnUse" height="1309.33" id="Filter" width="1342.05" x="544.755" y="430.391">
<feDropShadow dx="-3.67321e-05" dy="10" flood-color="#000000" flood-opacity="0.333" in="SourceGraphic" result="Shadow" stdDeviation="5"/>
</filter>
<filter color-interpolation-filters="sRGB" filterUnits="userSpaceOnUse" height="1324.31" id="Filter_2" width="1322.27" x="535.444" y="435.1">
<feDropShadow dx="-3.67321e-05" dy="10" flood-color="#000000" flood-opacity="0.333" in="SourceGraphic" result="Shadow" stdDeviation="5"/>
</filter>
<filter color-interpolation-filters="sRGB" filterUnits="userSpaceOnUse" height="1324.33" id="Filter_3" width="1324.72" x="529.656" y="433.066">
<feDropShadow dx="-3.67321e-05" dy="10" flood-color="#000000" flood-opacity="0.333" in="SourceGraphic" result="Shadow" stdDeviation="5"/>
</filter>
<filter color-interpolation-filters="sRGB" filterUnits="userSpaceOnUse" height="1309.08" id="Filter_4" width="1357.82" x="530.394" y="427.387">
<feDropShadow dx="-3.67321e-05" dy="10" flood-color="#000000" flood-opacity="0.333" in="SourceGraphic" result="Shadow" stdDeviation="5"/>
</filter>
<filter color-interpolation-filters="sRGB" filterUnits="userSpaceOnUse" height="1904.02" id="Filter_5" width="1904.02" x="232.491" y="159.491">
<feDropShadow dx="-3.67321e-05" dy="10" flood-color="#000000" flood-opacity="0.333" in="SourceGraphic" result="Shadow" stdDeviation="5"/>
</filter>
</defs>
<clipPath id="ArtboardFrame">
<rect height="2048" width="2732" x="0" y="0"/>
</clipPath>
<g class='frameSvg' clip-path="url(#ArtboardFrame)" id="Layer-1-copy" vectornator:layerName="Layer 1 copy">
<g class='middleSvg' filter="url(#Filter)" vectornator:shadowAngle="1.5708" vectornator:shadowColor="#000000" vectornator:shadowOffset="10" vectornator:shadowOpacity="0.333" vectornator:shadowRadius="10">
<path d="M1853.19 431.656C1847.4 431.581 1841.6 433.733 1837.12 438.094C1709.53 562.374 1581.96 686.684 1454.25 810.844C1267.31 992.589 1080.27 1174.23 893.375 1356.03C782.859 1463.54 672.43 1571.13 561.969 1678.69C557.241 1683.29 554.83 1689.38 554.75 1695.5C554.67 1701.62 556.925 1707.77 561.531 1712.5C566.138 1717.23 572.227 1719.64 578.344 1719.72C584.461 1719.8 590.616 1717.54 595.344 1712.94C705.741 1605.31 816.189 1497.75 926.531 1390.06C1113.13 1207.96 1299.58 1025.72 1486.12 843.562C1613.56 719.124 1741.13 594.818 1868.69 470.5C1873.16 466.139 1875.46 460.385 1875.53 454.594C1875.61 448.803 1873.49 442.976 1869.12 438.5C1864.76 434.024 1858.98 431.732 1853.19 431.656Z" fill="#000000" stroke="none"/>
</g>
<g class='middleSvg' filter="url(#Filter_2)" vectornator:shadowAngle="1.5708" vectornator:shadowColor="#000000" vectornator:shadowOffset="10" vectornator:shadowOpacity="0.333" vectornator:shadowRadius="10">
<path d="M569.375 435.094C563.258 435.089 557.14 437.43 552.469 442.094C547.798 446.757 545.443 452.851 545.438 458.969C545.432 465.086 547.774 471.235 552.438 475.906C661.092 584.673 769.699 693.473 878.406 802.188C1062.72 986.512 1247.23 1170.64 1431.56 1354.94C1557.04 1480.39 1682.4 1605.95 1807.78 1731.5C1812.2 1735.92 1817.99 1738.15 1823.78 1738.16C1829.57 1738.16 1835.39 1735.95 1839.81 1731.53C1844.24 1727.12 1846.43 1721.32 1846.44 1715.53C1846.44 1709.74 1844.23 1703.95 1839.81 1699.53C1714.47 1573.94 1589.13 1448.34 1463.88 1322.66C1279.88 1138.02 1096.06 953.236 912.031 768.625C803.494 659.741 694.84 550.957 586.25 442.125C581.586 437.454 575.492 435.099 569.375 435.094Z" fill="#000000" stroke="none"/>
</g>
<g class='middleSvg' filter="url(#Filter_3)" vectornator:shadowAngle="1.5708" vectornator:shadowColor="#000000" vectornator:shadowOffset="10" vectornator:shadowOpacity="0.333" vectornator:shadowRadius="10">
<path d="M563.094 433.062C557.098 433.063 551.074 435.362 546.5 439.938C541.926 444.513 539.655 450.505 539.656 456.5C539.657 462.495 541.956 468.489 546.531 473.062C655.582 582.016 764.582 691.008 873.688 799.906C1058.35 984.221 1243.19 1168.36 1427.88 1352.66C1553.74 1478.25 1679.51 1603.96 1805.28 1729.66C1809.61 1733.99 1815.26 1736.16 1820.94 1736.16C1826.61 1736.16 1832.29 1733.99 1836.62 1729.66C1840.96 1725.32 1843.13 1719.64 1843.12 1713.97C1843.12 1708.29 1840.96 1702.61 1836.62 1698.28C1710.89 1572.55 1585.17 1446.83 1459.53 1321C1275.18 1136.37 1090.97 951.608 906.594 767C797.661 657.928 688.643 548.955 579.656 439.938C575.081 435.364 569.089 433.062 563.094 433.062Z" fill="#000000" stroke="none"/>
</g>
<g class='middleSvg' filter="url(#Filter_4)" vectornator:shadowAngle="1.5708" vectornator:shadowColor="#000000" vectornator:shadowOffset="10" vectornator:shadowOpacity="0.333" vectornator:shadowRadius="10">
<path d="M1854.75 428.656C1848.96 428.545 1843.13 430.636 1838.62 434.969C1709.64 559.042 1580.67 683.152 1451.59 807.125C1262.19 989.035 1072.63 1170.79 883.25 1352.72C771.358 1460.21 659.556 1567.8 547.719 1675.34C542.962 1679.92 540.524 1685.98 540.406 1692.09C540.288 1698.21 542.486 1704.37 547.062 1709.12C551.639 1713.88 557.728 1716.35 563.844 1716.47C569.96 1716.59 576.119 1714.36 580.875 1709.78C692.649 1602.17 804.469 1494.61 916.188 1386.94C1105.28 1204.7 1294.18 1022.29 1483.25 840.031C1612.1 715.82 1741.05 591.704 1870 467.594C1874.5 463.261 1876.83 457.509 1876.94 451.719C1877.05 445.928 1874.96 440.097 1870.62 435.594C1866.29 431.091 1860.54 428.768 1854.75 428.656Z" fill="#000000" stroke="none"/>
</g>
<path d="M342.5 182L2026.5 182C2069.3 182 2104 216.698 2104 259.5L2104 1943.5C2104 1986.3 2069.3 2021 2026.5 2021L342.5 2021C299.698 2021 265 1986.3 265 1943.5L265 259.5C265 216.698 299.698 182 342.5 182Z" fill="none" fill-rule="evenodd" filter="url(#Filter_5)" stroke="#000000" stroke-linecap="round" stroke-linejoin="round" stroke-width="45.0177" vectornator:shadowAngle="1.5708" vectornator:shadowColor="#000000" vectornator:shadowOffset="10" vectornator:shadowOpacity="0.333" vectornator:shadowRadius="10"/>
</g>
</svg>
