<svg width="400" height="400" viewBox="0 0 400 400" fill="none" xmlns="http://www.w3.org/2000/svg">
<path d="M226.86 202.65L166.14 169.46" stroke="#6A0BFF" stroke-width="12" stroke-miterlimit="10" stroke-linecap="round" stroke-linejoin="round"/>
<path d="M264.53 195.14L310.79 137.55" stroke="#6A0BFF" stroke-width="12" stroke-miterlimit="10" stroke-linecap="round" stroke-linejoin="round"/>
<path d="M131.81 179.23L85.8999 260.19" stroke="#6A0BFF" stroke-width="12" stroke-miterlimit="10" stroke-linecap="round" stroke-linejoin="round"/>
<path d="M326.47 143.07C340.305 143.07 351.52 131.855 351.52 118.02C351.52 104.185 340.305 92.97 326.47 92.97C312.635 92.97 301.42 104.185 301.42 118.02C301.42 131.855 312.635 143.07 326.47 143.07Z" stroke="#191919" stroke-width="12" stroke-miterlimit="10" stroke-linecap="round" stroke-linejoin="round"/>
<path d="M248.85 239.72C262.685 239.72 273.9 228.505 273.9 214.67C273.9 200.835 262.685 189.62 248.85 189.62C235.015 189.62 223.8 200.835 223.8 214.67C223.8 228.505 235.015 239.72 248.85 239.72Z" stroke="#191919" stroke-width="12" stroke-miterlimit="10" stroke-linecap="round" stroke-linejoin="round"/>
<path d="M144.16 182.5C157.995 182.5 169.21 171.285 169.21 157.45C169.21 143.615 157.995 132.4 144.16 132.4C130.325 132.4 119.11 143.615 119.11 157.45C119.11 171.285 130.325 182.5 144.16 182.5Z" stroke="#191919" stroke-width="12" stroke-miterlimit="10" stroke-linecap="round" stroke-linejoin="round"/>
<path d="M73.53 307.03C87.3647 307.03 98.58 295.815 98.58 281.98C98.58 268.145 87.3647 256.93 73.53 256.93C59.6952 256.93 48.48 268.145 48.48 281.98C48.48 295.815 59.6952 307.03 73.53 307.03Z" stroke="#191919" stroke-width="12" stroke-miterlimit="10" stroke-linecap="round" stroke-linejoin="round"/>
</svg>
