<svg width="400" height="400" viewBox="0 0 400 400" fill="none" xmlns="http://www.w3.org/2000/svg">
<path d="M200 139.79V155.4" stroke="#6A0BFF" className='svg-secondary' stroke-width="12" stroke-miterlimit="10" stroke-linecap="round" stroke-linejoin="round"/>
<path d="M323 250.35H307.48" stroke="#6A0BFF" className='svg-secondary' stroke-width="12" stroke-miterlimit="10" stroke-linecap="round" stroke-linejoin="round"/>
<path d="M305.41 198.75L292.11 206.92" stroke="#6A0BFF" className='svg-secondary' stroke-width="12" stroke-miterlimit="10" stroke-linecap="round" stroke-linejoin="round"/>
<path d="M261.13 155.95L253.42 169.52" stroke="#6A0BFF" className='svg-secondary' stroke-width="12" stroke-miterlimit="10" stroke-linecap="round" stroke-linejoin="round"/>
<path d="M74.0601 250.35H89.5701" stroke="#6A0BFF" className='svg-secondary' stroke-width="12" stroke-miterlimit="10" stroke-linecap="round" stroke-linejoin="round"/>
<path d="M91.65 198.75L104.95 206.92" stroke="#6A0BFF" className='svg-secondary' stroke-width="12" stroke-miterlimit="10" stroke-linecap="round" stroke-linejoin="round"/>
<path d="M135.93 155.95L143.64 169.52" stroke="#6A0BFF" className='svg-secondary' stroke-width="12" stroke-miterlimit="10" stroke-linecap="round" stroke-linejoin="round"/>
<path d="M200 263.67C207.356 263.67 213.32 257.706 213.32 250.35C213.32 242.994 207.356 237.03 200 237.03C192.644 237.03 186.68 242.994 186.68 250.35C186.68 257.706 192.644 263.67 200 263.67Z" fill="white" stroke="#6A0BFF" className='svg-secondary' stroke-width="12" stroke-miterlimit="10" stroke-linecap="round" stroke-linejoin="round"/>
<path d="M208.74 240.29L253.42 195.61" stroke="#6A0BFF" className='svg-secondary' stroke-width="12" stroke-miterlimit="10" stroke-linecap="round" stroke-linejoin="round"/>
<path d="M350 263.13C350 180.29 282.84 113.13 200 113.13C117.16 113.13 50 180.29 50 263.13V286.88H350V263.13Z" stroke="#191919" className='svg-primary' className='svg-primary' stroke-width="12" stroke-miterlimit="10" stroke-linecap="round" stroke-linejoin="round"/>
</svg>
