<svg width="400" height="400" viewBox="0 0 400 400" fill="none" xmlns="http://www.w3.org/2000/svg">
<path d="M166.66 78.3801C190.44 98.1801 198.9 129.54 190.67 157.44L332.65 275.65C345.3 286.18 347.01 304.95 336.48 317.6C325.96 330.24 307.18 331.96 294.53 321.43L152.56 203.22C127.08 216.46 94.2399 213.73 70.4599 193.93C49.5199 176.5 40.4599 150.11 44.1999 125L87.5399 161.08L129.79 145.51L137.45 101.13L94.1099 65.0501C118.13 56.8201 145.73 60.9501 166.66 78.3801Z" stroke="#191919" stroke-width="12" stroke-miterlimit="10" stroke-linecap="round" stroke-linejoin="round"/>
<path d="M310.86 302.64C314.384 302.64 317.24 299.783 317.24 296.26C317.24 292.736 314.384 289.88 310.86 289.88C307.336 289.88 304.48 292.736 304.48 296.26C304.48 299.783 307.336 302.64 310.86 302.64Z" stroke="#6A0BFF" stroke-width="12" stroke-miterlimit="10" stroke-linecap="round" stroke-linejoin="round"/>
</svg>
